<svg width="78" height="65" viewBox="0 0 78 65" fill="none" xmlns="http://www.w3.org/2000/svg">
<g clip-path="url(#clip0_6831_1620)">
<path d="M72.2261 42.5259L73.8432 44.8305H72.5102L70.964 42.6411H70.0666V44.8305H68.9109V38.625H71.6569C72.297 38.625 72.8212 38.8109 73.2299 39.1842C73.6386 39.5565 73.8432 40.047 73.8432 40.6553C73.8432 41.1402 73.6923 41.5555 73.3899 41.901C73.0886 42.2465 72.7002 42.4552 72.2261 42.5259ZM71.5682 39.7601H70.0666V41.5247H71.5682C71.8706 41.5247 72.1238 41.4388 72.3284 41.267C72.533 41.0963 72.6348 40.8831 72.6348 40.6285C72.6348 40.3739 72.5345 40.1738 72.3325 40.0081C72.1314 39.843 71.8762 39.7601 71.5682 39.7601Z" fill="white"/>
<path d="M71.0739 48.3995C67.3869 48.3995 64.3877 45.4079 64.3877 41.7303C64.3877 38.0526 67.3869 35.0605 71.0739 35.0605C74.7608 35.0605 77.76 38.0526 77.76 41.7303C77.76 45.4079 74.7608 48.3995 71.0739 48.3995ZM71.0739 36.2421C68.0407 36.2421 65.5723 38.7043 65.5723 41.7303C65.5723 44.7562 68.0407 47.2179 71.0739 47.2179C74.107 47.2179 76.5754 44.7557 76.5754 41.7303C76.5754 38.7048 74.107 36.2421 71.0739 36.2421Z" fill="white"/>
<path d="M54.6638 25.6419C53.9137 25.9323 53.1125 26.0975 52.2774 26.1177C47.8009 26.2228 44.0699 22.0966 43.9463 16.899C43.8318 12.1064 46.8234 8.07825 50.7976 7.39426L49.3729 0.667969L0 13.7639L10.7884 64.6685L60.1588 51.5725L54.6633 25.6419H54.6638ZM15.9583 42.1638C16.0636 40.2023 20.3685 38.8383 25.5743 39.1177C30.778 39.3945 34.9127 41.2116 34.8074 43.1731C34.702 45.1347 30.3952 46.5007 25.1914 46.2218C19.9876 45.9425 15.8529 44.1279 15.9583 42.1638ZM26.9169 53.4149C21.8827 54.7607 17.5141 54.7788 17.1586 53.4583C16.8051 52.1378 20.5979 49.9752 25.632 48.6294C30.6661 47.2837 35.0373 47.2655 35.3903 48.586C35.7458 49.9065 31.953 52.0691 26.9169 53.4149ZM36.508 36.36C35.3584 38.754 30.616 38.8777 25.9146 36.6323C21.2132 34.3893 18.3335 30.6289 19.4806 28.2329C20.6303 25.8389 25.3727 25.7151 30.0741 27.958C34.7755 30.203 37.6572 33.9635 36.508 36.36ZM42.0582 29.5832C39.3163 31.6089 34.5759 29.8645 31.4739 25.6878C28.3719 21.5086 28.0827 16.4807 30.8246 14.4529C33.5686 12.4272 38.3069 14.1716 41.409 18.3483C44.511 22.5275 44.8027 27.5554 42.0582 29.5832Z" fill="white"/>
<path d="M60.1568 16.5157C60.0327 11.318 56.3022 7.19181 51.8277 7.29688C51.4788 7.30598 51.1349 7.33831 50.7976 7.39539L54.6639 25.643C57.9406 24.3776 60.2576 20.7454 60.1568 16.5157Z" fill="white"/>
</g>
<defs>
<clipPath id="clip0_6831_1620">
<rect width="77.76" height="64" fill="white" transform="translate(0 0.667969)"/>
</clipPath>
</defs>
</svg>
