<svg width="72" height="64" viewBox="0 0 72 64" fill="none" xmlns="http://www.w3.org/2000/svg">
<path d="M34.7499 0V10.7026C34.7499 11.1072 34.6842 11.498 34.5632 11.8645C34.5182 11.9994 34.4664 12.1273 34.4076 12.2553C34.0445 13.0333 33.4151 13.6592 32.6405 14.0223C32.516 14.0811 32.3846 14.133 32.2497 14.1779C31.8867 14.299 31.4959 14.3647 31.0913 14.3647H20.3887V11.8645H30.4827L27.7716 9.15342L24.0784 5.46024L25.8489 3.69318L29.5421 7.38637L32.2532 10.0975V0H34.7534H34.7499Z" fill="white"/>
<path d="M51.6147 11.8611V14.3612H40.9121C40.5075 14.3612 40.1167 14.2955 39.7502 14.1745C39.6153 14.1295 39.4874 14.0777 39.3594 14.0189C38.5813 13.6558 37.9554 13.0264 37.5923 12.2484C37.5336 12.1239 37.4817 11.9925 37.4367 11.8576C37.3157 11.4945 37.25 11.1038 37.25 10.6957V0H39.7502V10.094L42.4613 7.38291L46.1579 3.68972L47.925 5.45678L44.2283 9.14996L41.5172 11.8611H51.6112H51.6147Z" fill="white"/>
<path d="M34.7495 20.5273V31.2299H32.2493V21.1359L29.5382 23.847L25.845 27.5402L24.0745 25.7697L30.4788 19.3654H20.3848V16.8652H31.0874C31.492 16.8652 31.8827 16.9309 32.2458 17.052C32.3807 17.0969 32.5087 17.1488 32.6366 17.2076C33.4147 17.5707 34.0406 18.2 34.4037 18.9781C34.4624 19.1026 34.5143 19.234 34.5593 19.3689C34.6803 19.7354 34.746 20.1227 34.746 20.5308" fill="white"/>
<path d="M41.525 19.3689L47.9293 25.7731L46.1623 27.5437L39.758 21.1394V31.2334H37.2578V20.5308C37.2578 20.1262 37.3235 19.7354 37.4445 19.3689C37.4895 19.234 37.5414 19.106 37.6002 18.9781C37.9633 18.2 38.5926 17.5741 39.3707 17.2076C39.4952 17.1488 39.6266 17.0969 39.7614 17.052C40.1245 16.9309 40.5153 16.8652 40.9233 16.8652H51.626V19.3654H41.5319L41.525 19.3689Z" fill="white"/>
<path d="M39.7542 15.4717C39.2908 15.3576 38.8516 15.1743 38.447 14.9391C38.1669 14.7731 37.9007 14.583 37.6586 14.3651C37.5168 14.2372 37.3785 14.1023 37.2506 13.957C37.0362 13.715 36.8425 13.4522 36.6765 13.1686C36.4414 12.7675 36.2581 12.3283 36.144 11.8615C36.0506 11.4776 35.9987 11.08 35.9987 10.6685C35.9987 11.08 35.9469 11.4811 35.8535 11.8615C35.7394 12.3249 35.5561 12.764 35.321 13.1686C35.155 13.4522 34.9648 13.715 34.7469 13.957C34.619 14.1023 34.4841 14.2372 34.3389 14.3651C34.0968 14.5795 33.834 14.7731 33.5505 14.9391C33.1493 15.1743 32.7102 15.3576 32.2433 15.4717C31.8629 15.565 31.4618 15.6169 31.0503 15.6169C31.4618 15.6169 31.8629 15.6653 32.2433 15.7621C32.7067 15.8763 33.1459 16.0595 33.5505 16.2947C33.8306 16.4607 34.0968 16.6509 34.3389 16.8687C34.4841 16.9967 34.619 17.1315 34.7469 17.2768C34.9613 17.5188 35.155 17.7816 35.321 18.0652C35.5561 18.4663 35.7394 18.9055 35.8535 19.3723C35.9469 19.7562 35.9987 20.1538 35.9987 20.5654C35.9987 20.1538 36.0506 19.7527 36.144 19.3723C36.2581 18.909 36.4414 18.4698 36.6765 18.0652C36.8425 17.7851 37.0327 17.5188 37.2506 17.2768C37.3785 17.1315 37.5134 16.9967 37.6586 16.8687C37.9007 16.6543 38.1635 16.4607 38.447 16.2947C38.8482 16.0595 39.2873 15.8763 39.7542 15.7621C40.1346 15.6688 40.5357 15.6169 40.9472 15.6169C40.5357 15.6169 40.1346 15.565 39.7542 15.4717Z" fill="white"/>
<path d="M7.89125 55.2975C7.89125 57.815 6.15185 59.2432 3.94562 59.2432C1.73939 59.2432 0 57.7873 0 55.2975V42.1605C0 39.4597 1.79126 38.2148 3.94562 38.2148C6.09998 38.2148 7.89125 39.771 7.89125 42.1605V43.478L5.60548 44.7989V42.1605C5.60548 41.0193 4.85163 40.5006 3.94217 40.5006C3.0327 40.5006 2.28231 41.0193 2.28231 42.1605V55.2975C2.28231 56.2312 3.00849 56.9574 3.94217 56.9574C4.87584 56.9574 5.60548 56.2312 5.60548 55.2975V55.0382L7.89125 53.3403V55.2975Z" fill="white"/>
<path d="M11.6569 59.3397C10.3947 59.3397 9.37109 58.3161 9.37109 57.0539V43.4777C10.6333 43.4777 11.6569 44.5013 11.6569 45.7634V59.3397ZM11.7018 41.1954C11.7018 41.8524 11.1693 42.3815 10.5157 42.3815C9.86213 42.3815 9.32959 41.849 9.32959 41.1954C9.32959 40.5418 9.86213 40.0093 10.5157 40.0093C11.1693 40.0093 11.7018 40.5418 11.7018 41.1954Z" fill="white"/>
<path d="M19.0918 56.5044L20.6756 58.178C20.0774 58.8385 19.0676 59.2431 18.1582 59.2431C15.7687 59.2431 14.5998 57.8979 14.5998 55.4151V45.3729H13.1475V43.3949H14.5998V40.5801L16.8856 39.8193V43.3949H19.8976V45.3729H16.8856V55.4151C16.8856 56.4559 17.2764 57.0127 18.0544 57.0127C18.5489 57.0127 18.912 56.8087 19.0918 56.5044Z" fill="white"/>
<path d="M26.9789 63.2026V58.4098C26.7438 58.7867 26.2216 59.2432 24.8903 59.2432C23.1405 59.2432 21.3389 58.2611 21.3389 55.512V43.4814H22.4005C23.0817 43.4814 23.635 44.0174 23.635 44.6745V55.4082C23.635 56.494 24.3647 57.0231 25.3329 57.0231C26.2216 57.0231 26.9789 56.494 26.9789 55.4082V44.6745C26.9789 44.014 27.5322 43.4814 28.2134 43.4814H29.3027V60.8823C29.3027 62.1652 28.2619 63.2061 26.9789 63.2061" fill="white"/>
<path d="M43.8586 59.3404H35.9639V57.4799L41.2339 40.788H36.0676V38.2256H43.8586V40.086L38.6646 56.7779H43.8586V59.3404Z" fill="white"/>
<path d="M53.1569 55.4735C53.1569 57.8181 51.3656 59.267 49.2112 59.267C47.0569 59.267 45.2656 57.8181 45.2656 55.4735V47.1639C45.2656 44.8677 46.9774 43.4707 49.2112 43.4707C51.4451 43.4707 53.1569 44.8677 53.1569 47.1639V55.4735ZM50.8711 47.1604C50.8711 46.0884 50.1173 45.5386 49.2078 45.5386C48.2983 45.5386 47.5479 46.0884 47.5479 47.1604V55.4701C47.5479 56.4937 48.2741 57.0677 49.2078 57.0677C50.1415 57.0677 50.8711 56.4937 50.8711 55.4701V47.1604Z" fill="white"/>
<path d="M62.7078 59.267H60.422V47.2469C60.422 46.1507 59.5644 45.587 58.6307 45.587C57.6971 45.587 56.8395 46.1472 56.8395 47.2469V59.267H54.5537V43.6747C55.3076 44.3836 55.5808 44.5081 56.179 44.4597C56.4003 44.4424 56.6182 44.3594 56.7842 44.2142C57.2821 43.7646 57.9599 43.4707 59.0699 43.4707C61.2243 43.4707 62.7043 44.9507 62.7043 47.1708V59.267H62.7078Z" fill="white"/>
<path d="M71.848 55.4602C71.848 57.8532 70.1605 59.2503 67.9784 59.2503C65.7964 59.2503 64.1089 57.8532 64.1089 55.4602V47.1575C64.1089 44.7645 65.8206 43.4678 68.0545 43.4678C70.2884 43.4678 72.0001 44.889 72.0001 47.4584C72.0001 51.5734 70.3403 52.7699 66.3912 54.7133V55.4602C66.3912 56.4838 67.0136 57.0544 67.975 57.0544C68.8844 57.0544 69.5311 56.4804 69.5311 55.4602V55.2113L71.8411 54.4885V55.4602H71.848ZM68.058 45.5391C67.1243 45.5391 66.3947 46.089 66.3947 47.161V52.2961C69.1473 51.0512 69.7178 49.9032 69.7178 47.5828C69.7178 46.0613 68.964 45.5391 68.0545 45.5391" fill="white"/>
<path d="M36.0696 38.2256H35.9658V40.788H36.0696V38.2256Z" fill="white"/>
</svg>
