<svg width="523" height="523" viewBox="0 0 523 523" fill="none" xmlns="http://www.w3.org/2000/svg">
<path d="M63.0451 253.825C87.5322 247.795 110.74 238.109 132.121 225.683C146.922 216.912 160.993 206.861 173.785 195.348C181.277 188.587 188.587 181.46 195.348 173.785C206.678 160.993 216.912 147.105 225.683 132.121C238.109 110.923 247.795 87.7149 253.825 63.0451C258.759 42.761 261.5 21.746 261.5 0C261.5 21.746 264.241 42.9437 269.175 63.0451C275.205 87.5321 284.891 110.74 297.317 132.121C306.088 147.105 316.139 160.993 327.652 173.785C334.413 181.46 341.54 188.587 349.215 195.348C362.007 206.678 375.895 216.912 390.88 225.683C412.077 238.109 435.285 247.795 459.955 253.825C480.056 258.759 501.254 261.5 523 261.5C501.254 261.5 480.056 264.058 459.955 269.175C435.468 275.205 412.26 284.891 390.88 297.317C376.078 306.088 362.007 316.139 349.215 327.652C341.54 334.413 334.413 341.54 327.652 349.215C316.322 362.007 306.088 375.895 297.317 390.879C284.891 412.077 275.205 435.285 269.175 459.955C264.241 480.239 261.5 501.254 261.5 523C261.5 501.254 258.759 480.056 253.825 459.955C247.795 435.468 238.109 412.26 225.683 390.879C216.912 376.078 206.861 362.007 195.348 349.215C188.587 341.54 181.46 334.413 173.785 327.652C160.993 316.322 147.105 306.088 132.121 297.317C110.923 284.891 87.7149 275.205 63.0451 269.175C42.9438 264.241 21.746 261.5 0 261.5C21.746 261.5 42.9438 258.759 63.0451 253.825Z" fill="white"/>
<path d="M124.517 256.202C141.419 252.04 157.438 245.355 172.196 236.777C182.413 230.723 192.125 223.785 200.955 215.839C206.126 211.172 211.172 206.253 215.839 200.955C223.659 192.125 230.723 182.539 236.777 172.196C245.355 157.564 252.04 141.545 256.202 124.517C259.608 110.516 261.5 96.0101 261.5 81C261.5 96.0101 263.392 110.642 266.798 124.517C270.96 141.419 277.645 157.438 286.223 172.196C292.277 182.539 299.215 192.125 307.161 200.955C311.828 206.253 316.747 211.172 322.045 215.839C330.875 223.659 340.461 230.723 350.804 236.777C365.436 245.355 381.455 252.04 398.483 256.202C412.358 259.608 426.99 261.5 442 261.5C426.99 261.5 412.358 263.266 398.483 266.798C381.581 270.96 365.562 277.645 350.804 286.223C340.587 292.277 330.875 299.215 322.045 307.161C316.747 311.828 311.828 316.747 307.161 322.045C299.341 330.875 292.277 340.461 286.223 350.804C277.645 365.436 270.96 381.455 266.798 398.483C263.392 412.484 261.5 426.99 261.5 442C261.5 426.99 259.608 412.358 256.202 398.483C252.04 381.581 245.355 365.562 236.777 350.804C230.723 340.587 223.785 330.875 215.839 322.045C211.172 316.747 206.253 311.828 200.955 307.161C192.125 299.341 182.539 292.277 172.196 286.223C157.564 277.645 141.545 270.96 124.517 266.798C110.642 263.392 96.0101 261.5 81 261.5C96.0101 261.5 110.642 259.608 124.517 256.202Z" fill="#FF6633"/>
</svg>
