<svg width="24" height="25" viewBox="0 0 24 25" fill="none" xmlns="http://www.w3.org/2000/svg">
<path fill-rule="evenodd" clip-rule="evenodd" d="M9.56903 5.91797H14.431C15.0347 5.91796 15.533 5.91795 15.9389 5.95111C16.3604 5.98556 16.748 6.05948 17.112 6.24495C17.6765 6.53257 18.1354 6.99151 18.423 7.556C18.6085 7.92 18.6824 8.30753 18.7169 8.7291C18.75 9.13499 18.75 9.63326 18.75 10.237V15.099C18.75 15.7027 18.75 16.2009 18.7169 16.6068C18.6824 17.0284 18.6085 17.4159 18.423 17.7799C18.1354 18.3444 17.6765 18.8034 17.112 19.091C16.748 19.2765 16.3604 19.3504 15.9389 19.3848C15.533 19.418 15.0347 19.418 14.431 19.418H9.56901C8.96529 19.418 8.46702 19.418 8.06113 19.3848C7.63956 19.3504 7.25203 19.2765 6.88803 19.091C6.32354 18.8034 5.8646 18.3444 5.57698 17.7799C5.39151 17.4159 5.31759 17.0284 5.28315 16.6068C5.24998 16.2009 5.24999 15.7027 5.25 15.0989V10.237C5.24999 9.63327 5.24998 9.135 5.28315 8.7291C5.31759 8.30753 5.39151 7.92 5.57698 7.556C5.8646 6.99151 6.32354 6.53257 6.88803 6.24495C7.25203 6.05948 7.63956 5.98556 8.06113 5.95111C8.46703 5.91795 8.9653 5.91796 9.56903 5.91797ZM8.18328 7.44613C7.85447 7.473 7.68631 7.52169 7.56902 7.58146C7.28677 7.72527 7.0573 7.95474 6.91349 8.23698C6.85372 8.35428 6.80503 8.52244 6.77816 8.85125C6.75058 9.18881 6.75 9.62553 6.75 10.268V15.068C6.75 15.7104 6.75058 16.1471 6.77816 16.4847C6.80503 16.8135 6.85372 16.9817 6.91349 17.099C7.0573 17.3812 7.28677 17.6107 7.56902 17.7545C7.68631 17.8142 7.85447 17.8629 8.18328 17.8898C8.52085 17.9174 8.95757 17.918 9.6 17.918H14.4C15.0424 17.918 15.4792 17.9174 15.8167 17.8898C16.1455 17.8629 16.3137 17.8142 16.431 17.7545C16.7132 17.6107 16.9427 17.3812 17.0865 17.099C17.1463 16.9817 17.195 16.8135 17.2218 16.4847C17.2494 16.1471 17.25 15.7104 17.25 15.068V10.268C17.25 9.62553 17.2494 9.18881 17.2218 8.85125C17.195 8.52244 17.1463 8.35428 17.0865 8.23698C16.9427 7.95474 16.7132 7.72527 16.431 7.58146C16.3137 7.52169 16.1455 7.473 15.8167 7.44613C15.4792 7.41855 15.0424 7.41797 14.4 7.41797H9.6C8.95757 7.41797 8.52085 7.41855 8.18328 7.44613Z" fill="white"/>
<path fill-rule="evenodd" clip-rule="evenodd" d="M9 10.418C9.41421 10.418 9.75 10.0822 9.75 9.66797C9.75 9.25376 9.41421 8.91797 9 8.91797C8.58579 8.91797 8.25 9.25376 8.25 9.66797C8.25 10.0822 8.58579 10.418 9 10.418ZM9 11.918C8.58579 11.918 8.25 12.2538 8.25 12.668V15.668C8.25 16.0822 8.58579 16.418 9 16.418C9.41421 16.418 9.75 16.0822 9.75 15.668V12.668C9.75 12.2538 9.41421 11.918 9 11.918ZM13.5 13.418C13.0858 13.418 12.75 13.7538 12.75 14.168V15.668C12.75 16.0822 12.4142 16.418 12 16.418C11.5858 16.418 11.25 16.0822 11.25 15.668V14.168V12.668C11.25 12.2538 11.5858 11.918 12 11.918C12.2069 11.918 12.3942 12.0018 12.5299 12.1372C12.8237 11.9967 13.1526 11.918 13.5 11.918C14.7426 11.918 15.75 12.9253 15.75 14.168V15.668C15.75 16.0822 15.4142 16.418 15 16.418C14.5858 16.418 14.25 16.0822 14.25 15.668V14.168C14.25 13.7538 13.9142 13.418 13.5 13.418Z" fill="white"/>
</svg>
