<svg width="24" height="25" viewBox="0 0 24 25" fill="none" xmlns="http://www.w3.org/2000/svg">
<path fill-rule="evenodd" clip-rule="evenodd" d="M12 8.16797C10.088 8.16797 8.48266 8.24102 7.29371 8.32159C6.66995 8.36387 6.16862 8.85587 6.12517 9.52417C6.058 10.5572 6 11.727 6 12.668C6 13.609 6.058 14.7787 6.12517 15.8118C6.16862 16.4801 6.66995 16.9721 7.29371 17.0143C8.48266 17.0949 10.088 17.168 12 17.168C13.912 17.168 15.5173 17.0949 16.7063 17.0143C17.33 16.9721 17.8314 16.4801 17.8748 15.8118C17.942 14.7787 18 13.609 18 12.668C18 11.727 17.942 10.5572 17.8748 9.52417C17.8314 8.85587 17.33 8.36387 16.7063 8.32159C15.5173 8.24102 13.912 8.16797 12 8.16797ZM7.19228 6.82503C5.79637 6.91963 4.71911 8.03067 4.62833 9.42684C4.56054 10.4694 4.5 11.6776 4.5 12.668C4.5 13.6583 4.56054 14.8666 4.62833 15.9091C4.71911 17.3053 5.79637 18.4163 7.19229 18.5109C8.41075 18.5935 10.0502 18.668 12 18.668C13.9498 18.668 15.5893 18.5935 16.8077 18.5109C18.2036 18.4163 19.2809 17.3053 19.3717 15.9091C19.4395 14.8666 19.5 13.6583 19.5 12.668C19.5 11.6776 19.4395 10.4694 19.3717 9.42684C19.2809 8.03067 18.2036 6.91963 16.8077 6.82503C15.5893 6.74245 13.9498 6.66797 12 6.66797C10.0502 6.66797 8.41075 6.74245 7.19228 6.82503Z" fill="white"/>
<path d="M10.5 11.1692C10.5 10.5713 11.1655 10.2138 11.6641 10.5439L13.9091 12.0304C14.366 12.3329 14.366 13.0036 13.9091 13.3061L11.664 14.7924C11.1655 15.1225 10.5 14.765 10.5 14.167V11.1692Z" fill="white"/>
</svg>
