<svg width="24" height="25" viewBox="0 0 24 25" fill="none" xmlns="http://www.w3.org/2000/svg">
<path fill-rule="evenodd" clip-rule="evenodd" d="M5.25 9.66797C5.25 7.5969 6.92893 5.91797 9 5.91797H15C17.0711 5.91797 18.75 7.5969 18.75 9.66797V15.668C18.75 17.739 17.0711 19.418 15 19.418H9C6.92893 19.418 5.25 17.739 5.25 15.668V9.66797ZM9 7.41797C7.75736 7.41797 6.75 8.42533 6.75 9.66797V15.668C6.75 16.9106 7.75736 17.918 9 17.918H15C16.2426 17.918 17.25 16.9106 17.25 15.668V9.66797C17.25 8.42533 16.2426 7.41797 15 7.41797H9Z" fill="white"/>
<path fill-rule="evenodd" clip-rule="evenodd" d="M15.375 10.043C15.7892 10.043 16.125 9.70718 16.125 9.29297C16.125 8.87876 15.7892 8.54297 15.375 8.54297C14.9608 8.54297 14.625 8.87876 14.625 9.29297C14.625 9.70718 14.9608 10.043 15.375 10.043ZM10.5 12.668C10.5 11.8395 11.1716 11.168 12 11.168C12.8284 11.168 13.5 11.8395 13.5 12.668C13.5 13.4964 12.8284 14.168 12 14.168C11.1716 14.168 10.5 13.4964 10.5 12.668ZM12 9.66797C10.3431 9.66797 9 11.0111 9 12.668C9 14.3248 10.3431 15.668 12 15.668C13.6569 15.668 15 14.3248 15 12.668C15 11.0111 13.6569 9.66797 12 9.66797Z" fill="white"/>
</svg>
