<svg width="24" height="25" viewBox="0 0 24 25" fill="none" xmlns="http://www.w3.org/2000/svg">
<path d="M12.75 20.1309C12.5033 20.1554 12.2531 20.168 12 20.168C11.7469 20.168 11.4967 20.1554 11.25 20.1309V14.168H10.5C10.0858 14.168 9.75 13.8322 9.75 13.418C9.75 13.0038 10.0858 12.668 10.5 12.668H11.25V11.168C11.25 9.92533 12.2574 8.91797 13.5 8.91797H14.25C14.6642 8.91797 15 9.25376 15 9.66797C15 10.0822 14.6642 10.418 14.25 10.418H13.5C13.0858 10.418 12.75 10.7538 12.75 11.168V12.668H14.25C14.6642 12.668 15 13.0038 15 13.418C15 13.8322 14.6642 14.168 14.25 14.168H12.75V20.1309Z" fill="white"/>
<path fill-rule="evenodd" clip-rule="evenodd" d="M12 18.668C15.3137 18.668 18 15.9817 18 12.668C18 9.35426 15.3137 6.66797 12 6.66797C8.68629 6.66797 6 9.35426 6 12.668C6 15.9817 8.68629 18.668 12 18.668ZM12 20.168C16.1421 20.168 19.5 16.8101 19.5 12.668C19.5 8.52583 16.1421 5.16797 12 5.16797C7.85786 5.16797 4.5 8.52583 4.5 12.668C4.5 16.8101 7.85786 20.168 12 20.168Z" fill="white"/>
</svg>
