<svg width="24" height="25" viewBox="0 0 24 25" fill="none" xmlns="http://www.w3.org/2000/svg">
<path d="M17.8144 7.16186C18.0872 6.85013 18.0556 6.37631 17.7439 6.10355C17.4322 5.83078 16.9583 5.86237 16.6856 6.1741L12.4793 10.9813L13.448 12.152L17.8144 7.16186Z" fill="white"/>
<path d="M11.5207 14.3547L10.5519 13.184L6.18558 18.1741C5.91282 18.4858 5.9444 18.9597 6.25613 19.2324C6.56786 19.5052 7.04168 19.4736 7.31444 19.1619L11.5207 14.3547Z" fill="white"/>
<path fill-rule="evenodd" clip-rule="evenodd" d="M5.59844 8.37427C4.7892 7.39634 5.48474 5.91797 6.75408 5.91797H8.55719C9.00417 5.91797 9.42786 6.11731 9.71282 6.46168L18.4016 16.9617C19.2108 17.9396 18.5153 19.418 17.2459 19.418H15.4429C14.9959 19.418 14.5722 19.2186 14.2873 18.8743L5.59844 8.37427ZM6.75408 7.41797L6.75408 7.41797L15.4429 17.918L17.2459 17.918L8.55719 7.41797H6.75408Z" fill="white"/>
</svg>
