<svg width="40" height="40" viewBox="0 0 40 40" fill="none" xmlns="http://www.w3.org/2000/svg">
<path d="M35.1782 19.413C33.3054 18.9518 31.5304 18.211 29.8952 17.2607C28.7631 16.5898 27.6869 15.8211 26.7086 14.9406C26.1356 14.4235 25.5765 13.8784 25.0594 13.2914C24.1929 12.3131 23.4102 11.2509 22.7393 10.1048C21.789 8.48358 21.0482 6.70859 20.587 4.8218C20.2096 3.27044 20 1.66317 20 0C20 1.66317 19.7904 3.28441 19.413 4.8218C18.9518 6.69462 18.211 8.4696 17.2607 10.1048C16.5898 11.2509 15.8211 12.3131 14.9406 13.2914C14.4235 13.8784 13.8784 14.4235 13.2914 14.9406C12.3131 15.8071 11.2509 16.5898 10.1048 17.2607C8.48357 18.211 6.70859 18.9518 4.8218 19.413C3.28441 19.7904 1.66317 20 0 20C1.66317 20 3.28441 20.1957 4.8218 20.587C6.69461 21.0482 8.46959 21.789 10.1048 22.7393C11.2369 23.4102 12.3131 24.1789 13.2914 25.0594C13.8784 25.5765 14.4235 26.1216 14.9406 26.7086C15.8071 27.6869 16.5898 28.7491 17.2607 29.8952C18.211 31.5164 18.9518 33.2914 19.413 35.1782C19.7904 36.7296 20 38.3368 20 40C20 38.3368 20.2096 36.7156 20.587 35.1782C21.0482 33.3054 21.789 31.5304 22.7393 29.8952C23.4102 28.7631 24.1789 27.6869 25.0594 26.7086C25.5765 26.1216 26.1216 25.5765 26.7086 25.0594C27.6869 24.1929 28.7491 23.4102 29.8952 22.7393C31.5164 21.789 33.2914 21.0482 35.1782 20.587C36.7156 20.2096 38.3368 20 40 20C38.3368 20 36.7156 19.7904 35.1782 19.413Z" fill="#FF6633"/>
</svg>
