<svg width="349" height="191" viewBox="0 0 349 191" fill="none" xmlns="http://www.w3.org/2000/svg">
<path d="M111.28 47H93.9556C93.9556 68.5197 76.7533 86.053 55.64 86.053C34.5267 86.053 17.3244 68.5197 17.3244 47H-0.00012207C-0.00012207 75.2776 20.4104 98.7593 46.9625 103.026V142.266H64.287V103.026C90.8696 98.7593 111.28 75.2776 111.28 47Z" fill="white"/>
<path d="M301.097 47H237.343V142.266H301.067C326.857 142.172 347.802 120.832 347.802 94.6329C347.802 68.4332 326.888 47.1246 301.097 47ZM300.913 124.602H254.73V64.6637H300.913C317.197 64.6637 330.414 78.1218 330.414 94.6329C330.414 111.175 317.197 124.602 300.913 124.602Z" fill="white"/>
<path d="M173.742 124.602C157.499 124.602 144.26 111.175 144.26 94.6329V47H126.884V94.6329V94.8198C126.976 120.895 147.815 142.11 173.466 142.266H222.561V124.602H173.742Z" fill="white"/>
</svg>
