<svg width="38" height="11" viewBox="0 0 38 11" fill="none" xmlns="http://www.w3.org/2000/svg">
<g clip-path="url(#clip0_25159_478)">
<path d="M11.909 0.5H10.0546C10.0546 2.76008 8.21586 4.60143 5.95319 4.60143C3.69051 4.60143 1.85436 2.76008 1.85436 0.5H0C0 3.46749 2.18205 5.93563 5.02731 6.38297V10.5026H6.88166V6.38297C9.72692 5.93563 11.909 3.47009 11.909 0.5Z" fill="white"/>
<path d="M32.1666 0.5H25.3682V10.5H32.1614C34.9104 10.4896 37.1471 8.25032 37.1471 5.4987C37.1471 2.74707 34.9156 0.510403 32.1666 0.5ZM32.1458 8.64564H27.2225V2.35436H32.1458C33.8805 2.35436 35.2927 3.76658 35.2927 5.5013C35.2927 7.23602 33.8805 8.64824 32.1458 8.64824V8.64564Z" fill="white"/>
<path d="M18.533 8.64564C16.7983 8.64564 15.3861 7.23342 15.3861 5.5013V0.5H13.5317V5.5013V5.52211C13.5421 8.26073 15.7658 10.4844 18.5044 10.5H23.7424V8.64564H18.533Z" fill="white"/>
</g>
<defs>
<clipPath id="clip0_25159_478">
<rect width="37.1469" height="10" fill="white" transform="translate(0 0.5)"/>
</clipPath>
</defs>
</svg>
